<?xml version="1.0" encoding="UTF-8"?>
<!DOCTYPE svg PUBLIC "-//W3C//DTD SVG 1.1//EN" "http://www.w3.org/Graphics/SVG/1.1/DTD/svg11.dtd">
<!-- Creator: CorelDRAW X8 -->
<svg xmlns="http://www.w3.org/2000/svg" xml:space="preserve" width="44.2578mm" height="44.4494mm" version="1.1" style="shape-rendering:geometricPrecision; text-rendering:geometricPrecision; image-rendering:optimizeQuality; fill-rule:evenodd; clip-rule:evenodd"
viewBox="0 0 504 506"
 xmlns:xlink="http://www.w3.org/1999/xlink">
 <defs>
  <style type="text/css">
   <![CDATA[
    .fil0 {fill:#D73D70;fill-rule:nonzero}
   ]]>
  </style>
 </defs>
 <g id="Camada_x0020_1">
  <metadata id="CorelCorpID_0Corel-Layer"/>
  <g id="_2372592375296">
   <g>
    <path class="fil0" d="M252 316c-75,0 -136,-61 -136,-136 0,-75 61,-136 136,-136 75,0 136,61 136,136 0,75 -61,136 -136,136zm181 -134l0 -2c0,-1 0,-3 0,-5l0 0 -1 0c-7,-5 -17,-8 -27,-8 0,-1 -2,-10 -2,-12 10,-2 19,-7 25,-14l0 0 0 -1c0,-3 -2,-8 -3,-11l0 -1 0 0c-9,-2 -20,-2 -29,0 0,-1 -4,-9 -5,-11 9,-5 16,-12 21,-20l0 0 0 -1c-2,-3 -4,-7 -6,-10l0 0 -1 0c-9,0 -19,2 -28,7 0,-1 -6,-8 -7,-9 7,-8 12,-16 14,-25l1 -1 -1 0c-2,-3 -5,-6 -8,-8l0 -1 -1 0c-9,3 -18,8 -25,15 -1,-1 -8,-7 -9,-8 5,-8 7,-18 7,-27 0,0 0,-1 0,-1l0 0c-3,-2 -7,-5 -10,-6l-1 0 0 0c-8,4 -15,12 -20,20 -2,-1 -11,-4 -12,-5 1,-5 2,-9 2,-14 0,-5 0,-10 -2,-14l0 -1 0 0c-3,-1 -8,-3 -12,-3l0 0 0 0c-7,6 -12,15 -15,25 -1,0 -10,-2 -12,-2 0,-9 -3,-19 -7,-27l0 -1 -1 0c-2,0 -3,0 -5,0l-1 0c-2,0 -4,0 -6,0l0 0 0 1c-5,7 -8,17 -8,27 -1,0 -11,2 -12,2 -3,-10 -8,-19 -14,-25l-1 0 0 0c-4,0 -9,2 -12,3l0 0 0 0c-1,5 -2,10 -2,15 0,4 1,9 2,14 -1,1 -10,4 -12,5 -5,-8 -12,-16 -20,-20l0 0 -1 0c-3,1 -7,4 -10,6l0 0 0 1c0,9 2,19 7,27 -1,1 -8,6 -9,7 -7,-7 -16,-12 -25,-14l0 0 0 0c-3,2 -7,6 -9,8l0 1 0 0c2,9 7,18 14,25 -1,1 -6,9 -7,10 -9,-5 -19,-8 -28,-8l0 0 -1 1c-2,2 -4,7 -6,10l0 0 1 1c4,8 11,15 20,20 -1,1 -4,10 -5,11 -9,-2 -20,-3 -28,0l-1 0 0 1c-1,3 -3,7 -3,11l0 0 0 1c7,6 16,11 25,14 0,1 -1,11 -2,12 -9,0 -20,3 -27,7l-1 1 0 0c0,2 0,4 0,6 0,2 0,4 0,6l0 0 1 1c7,4 17,7 27,7 1,1 2,11 2,12 -9,3 -18,8 -25,15l0 0 0 0c1,4 2,9 3,12l0 0 1 0c8,3 19,3 28,0 1,2 5,10 5,11 -8,5 -16,13 -20,20l0 1 0 0c1,3 4,8 6,10l0 1 1 0c9,0 18,-3 27,-7 1,1 7,8 8,9 -7,7 -13,16 -15,25l0 0 0 1c2,2 6,6 9,8l0 0 1 0c8,-2 17,-7 24,-14 1,1 9,7 10,8 -5,8 -7,18 -7,27l0 1 0 0c3,2 7,4 10,6l1 0 0 0c8,-5 15,-12 20,-20 2,0 10,3 11,4 -1,5 -2,9 -2,14 0,5 1,10 2,14l0 1 1 0c3,1 8,3 11,3l1 0 0 0c6,-6 12,-16 14,-25 1,0 11,2 12,2 1,10 3,20 8,27l0 1 1 0c3,0 8,0 11,0l1 0 0 -1c5,-7 7,-17 8,-27 1,0 10,-2 11,-2 3,10 8,19 14,25l1 0 0 0c4,0 9,-2 12,-3l0 0 0 0c1,-5 2,-10 2,-15 0,-5 -1,-9 -2,-14 1,-1 10,-4 11,-5 5,8 13,16 20,20l1 0 0 0c3,-1 8,-3 11,-6l0 0c0,0 0,-1 0,-1 0,-9 -3,-19 -7,-27 1,-1 8,-6 9,-7 7,7 16,12 25,14l0 0 0 0c3,-2 7,-6 9,-8l0 -1 0 0c-2,-9 -7,-18 -14,-25 1,-1 6,-9 7,-10 9,5 19,8 28,8l0 0 1 -1c2,-3 4,-7 5,-10l1 0 -1 -1c-4,-8 -11,-15 -20,-20 1,-1 4,-10 5,-11 9,2 20,3 28,0l1 0 0 -1c1,-3 3,-7 3,-11l0 0 0 -1c-7,-6 -16,-11 -25,-14 0,-1 2,-10 2,-12 10,0 20,-2 27,-7l1 0 0 -1c0,-1 0,-3 0,-5l0 0z"/>
    <path class="fil0" d="M347 143c1,1 2,2 2,4 7,24 7,44 0,68 0,2 -1,3 -2,3 -2,1 -3,0 -5,-1l-46 -32c-2,-1 -3,-2 -3,-4 0,-2 1,-3 3,-5l46 -31c2,-2 4,-2 5,-2zm-17 105c-17,18 -34,28 -59,34 -2,0 -3,0 -4,0 -1,-1 -1,-4 -1,-5l4 -56c0,-2 1,-4 3,-5 1,-1 3,-1 5,0l50 25c3,1 4,2 4,3 0,2 -1,3 -2,4zm-78 -35c-18,0 -33,-15 -33,-33 0,-11 6,-21 15,-27 3,-2 7,-1 9,2 2,3 1,7 -2,9 -5,4 -8,10 -8,16 0,11 8,20 19,20 11,0 20,-9 20,-20 0,-6 -4,-12 -9,-16 -3,-2 -4,-6 -2,-9 2,-3 6,-4 9,-2 9,6 15,16 15,27 0,18 -15,33 -33,33zm-14 69c-1,1 -3,1 -4,1 -24,-6 -42,-16 -59,-34 -1,-2 -2,-3 -2,-4 0,0 0,0 0,0 0,-2 2,-3 4,-4l50 -24c2,-1 4,-1 5,0 2,1 3,2 3,5l4 55c0,3 0,5 -1,5zm-76 -65c-2,2 -4,2 -5,2 -1,-1 -2,-2 -2,-4 -7,-24 -7,-44 0,-68 0,-2 1,-3 2,-3 2,-1 4,0 5,1l46 32c2,1 3,3 3,4 0,2 -1,4 -3,5l-46 31zm12 -103l0 0c17,-18 35,-28 59,-34 1,0 3,-1 4,0 1,1 1,3 1,5l-4 56c0,2 -1,4 -3,5 -1,1 -3,1 -5,0l-50 -25c-2,-1 -4,-1 -4,-3 0,-1 0,-3 2,-4zm93 -34c1,-1 3,-1 4,0 24,5 42,15 59,34 1,1 2,2 2,3 0,0 0,0 0,0 0,2 -2,3 -4,4l-50 24c-2,1 -4,1 -5,0 -2,-1 -3,-2 -3,-4l-4 -56c0,-3 0,-4 1,-5zm-15 -19c-66,0 -119,53 -119,119 0,66 53,119 119,119 66,0 120,-53 120,-119 0,-66 -54,-119 -120,-119z"/>
   </g>
   <g>
    <path class="fil0" d="M191 491c-2,0 -6,0 -9,0 -7,0 -7,-4 -7,-14l0 -29 16 0c2,0 3,-1 3,-2l0 -10c0,-1 -1,-2 -3,-2l-16 0 0 -14c0,-1 -1,-2 -1,-2 -1,-1 -2,-1 -3,-1l-10 3c-2,0 -2,1 -2,3l0 11 -7 0c-1,0 -2,1 -2,2l0 10c0,1 1,2 2,2l7 0 0 32c0,20 4,26 21,26 3,0 8,-1 12,-1 1,0 2,-2 2,-3l0 -9c0,-1 -2,-3 -3,-2z"/>
    <path class="fil0" d="M111 492c-13,0 -16,-8 -16,-23 0,-16 4,-22 16,-22 11,0 15,6 15,22 0,14 -2,23 -15,23zm0 -60c-22,0 -32,11 -32,37 0,26 10,37 32,37 22,0 32,-11 32,-37 0,-25 -11,-37 -32,-37z"/>
    <path class="fil0" d="M34 452c-8,0 -14,-1 -17,-1l0 -28c2,0 5,-1 12,-1l6 0c12,0 16,8 16,15 0,9 -6,14 -17,15zm18 10c11,-6 16,-14 16,-25 0,-14 -5,-30 -33,-30 0,0 -1,0 -2,0 -5,0 -16,0 -31,1 -1,1 -2,2 -2,3l0 91c0,1 1,3 3,3l11 0c1,0 3,-2 3,-3l0 -36c3,0 10,1 18,1l16 36c1,1 2,2 3,2l12 0c1,0 2,-1 3,-2 0,0 0,-1 0,-2l-17 -39z"/>
    <path class="fil0" d="M501 491c-2,0 -6,0 -9,0 -7,0 -7,-4 -7,-14l0 -29 16 0c2,0 3,-1 3,-2l0 -10c0,-1 -1,-2 -3,-2l-16 0 0 -14c0,-1 -1,-2 -1,-2 -1,-1 -2,-1 -3,-1l-11 3c-1,0 -2,1 -2,3l0 11 -6 0c-1,0 -3,1 -3,2l0 10c0,1 2,2 3,2l6 0 0 32c0,20 5,26 22,26 3,0 8,-1 12,-1 1,0 2,-2 2,-3l0 -9c0,-1 -2,-3 -3,-2z"/>
    <path class="fil0" d="M426 447c8,0 15,2 21,2 0,0 1,0 2,-1 0,0 1,-1 1,-2l0 -9c0,-1 -1,-2 -2,-2 -5,-1 -14,-3 -22,-3 -22,0 -32,11 -32,37 0,0 0,0 0,0l0 0c0,26 10,37 32,37 8,0 17,-2 22,-3 1,0 2,-1 2,-2l0 -9c0,-1 -1,-2 -1,-2 -1,-1 -2,-1 -2,-1 -6,1 -13,2 -21,2 -10,0 -14,-4 -15,-16 0,0 0,0 0,0 0,-1 0,-1 0,-2 0,0 0,-1 0,-1 0,-1 0,-1 -1,-1 0,-1 0,-2 0,-2 0,-16 5,-22 16,-22z"/>
    <path class="fil0" d="M366 489c0,0 -10,3 -18,3 -6,0 -7,-6 -7,-9 0,-6 3,-9 9,-9l16 -1 0 16zm-8 -57c-8,0 -21,2 -27,3 -1,0 -2,1 -2,2l1 9c0,1 0,2 0,2 1,1 2,1 2,1 6,0 17,-1 25,-1 6,0 9,3 9,8l0 4 -18 2c-17,1 -24,7 -24,21 0,15 8,23 21,23 11,0 23,-5 23,-5 3,2 5,4 11,5 1,0 2,0 2,-1 1,0 1,-1 1,-2l0 -47c0,-16 -8,-24 -24,-24z"/>
    <path class="fil0" d="M244 489c0,0 -11,3 -18,3 -6,0 -7,-6 -7,-9 0,-6 3,-9 9,-9l16 -1 0 16zm-8 -57c-8,0 -22,2 -27,3 -1,0 -2,1 -2,2l0 9c0,1 1,2 1,2 1,1 1,1 2,1 6,0 17,-1 25,-1 5,0 9,3 9,8l0 4 -18 2c-17,1 -24,7 -24,21 0,15 8,23 21,23 11,0 23,-5 23,-5 3,2 5,4 11,5 1,0 1,0 2,-1 0,0 1,-1 1,-2l0 -47c0,-16 -8,-24 -24,-24z"/>
    <path class="fil0" d="M312 433c-7,1 -14,5 -18,8l0 -5c0,-1 -1,-2 -3,-2l-11 0c-1,0 -2,1 -2,2l0 66c0,1 1,3 2,3l11 0c2,0 3,-2 3,-3l0 -45c2,-2 10,-8 19,-9 1,0 2,-1 2,-3l0 -9c0,-1 0,-2 -1,-2 0,-1 -1,-1 -2,-1z"/>
   </g>
  </g>
 </g>
</svg>
